<svg width="514" height="514" viewBox="0 0 514 514" fill="none" xmlns="http://www.w3.org/2000/svg">
<circle cx="257" cy="257" r="247" fill="#FEFAF6" stroke="#E2B53E" stroke-width="20"/>
<circle cx="257" cy="257" r="230" fill="#FEFAF6" stroke="#F1645D" stroke-width="20"/>
<path d="M256.5 166.769C206.477 166.769 165.769 207.477 165.769 257.5C165.769 307.523 206.477 348.231 256.5 348.231C306.523 348.231 347.231 307.523 347.231 257.5C347.231 207.477 306.523 166.769 256.5 166.769ZM256.5 322.308C220.703 322.308 191.692 293.297 191.692 257.5C191.692 221.703 220.703 192.692 256.5 192.692C292.297 192.692 321.308 221.703 321.308 257.5C321.308 293.297 292.297 322.308 256.5 322.308ZM256.5 140.846C263.656 140.846 269.462 135.04 269.462 127.885V101.962C269.462 94.806 263.656 89 256.5 89C249.344 89 243.538 94.806 243.538 101.962V127.885C243.538 135.04 249.344 140.846 256.5 140.846ZM256.5 374.154C249.344 374.154 243.538 379.96 243.538 387.115V413.038C243.538 420.194 249.344 426 256.5 426C263.656 426 269.462 420.194 269.462 413.038V387.115C269.462 379.96 263.656 374.154 256.5 374.154ZM357.307 175.005L375.635 156.677C380.698 151.614 380.698 143.412 375.635 138.349C370.572 133.286 362.37 133.286 357.307 138.349L338.978 156.677C333.915 161.74 333.915 169.942 338.978 175.005C344.041 180.069 352.244 180.069 357.307 175.005ZM155.693 339.995L137.365 358.324C132.302 363.386 132.302 371.588 137.365 376.651C142.428 381.714 150.63 381.714 155.693 376.651L174.022 358.324C179.085 353.244 179.085 345.058 174.022 339.995C168.959 334.931 160.756 334.914 155.693 339.995ZM139.846 257.5C139.846 250.344 134.04 244.538 126.885 244.538H100.962C93.806 244.538 88 250.344 88 257.5C88 264.656 93.806 270.462 100.962 270.462H126.885C134.04 270.462 139.846 264.656 139.846 257.5ZM412.038 244.538H386.115C378.96 244.538 373.154 250.344 373.154 257.5C373.154 264.656 378.96 270.462 386.115 270.462H412.038C419.194 270.462 425 264.656 425 257.5C425 250.344 419.194 244.538 412.038 244.538ZM155.676 175.005C160.74 180.069 168.942 180.069 174.005 175.005C179.069 169.942 179.069 161.74 174.005 156.677L155.676 138.349C150.613 133.286 142.412 133.286 137.348 138.349C132.285 143.412 132.285 151.614 137.348 156.677L155.676 175.005ZM357.324 339.978C352.244 334.914 344.058 334.914 338.995 339.978C333.931 345.041 333.915 353.243 338.995 358.306L357.324 376.634C362.386 381.697 370.588 381.697 375.651 376.634C380.714 371.571 380.714 363.369 375.651 358.306L357.324 339.978Z" fill="#E2B53E"/>
</svg>
