<svg width="72" height="72" viewBox="0 0 72 72" fill="none" xmlns="http://www.w3.org/2000/svg">
<path d="M28.8096 26.1906C26.571 23.1779 25.343 18.9065 25.343 14.1721C25.343 7.20006 29.8667 4.00006 36.0096 4.00006C42.4096 4.00006 46.6763 7.20006 46.6763 14.1721C46.6763 18.9161 45.3718 23.1907 43.2853 26.1906L37.6027 35.5436C37.0162 36.5088 35.0081 36.5074 34.4245 35.5414L28.8096 26.1906Z" fill="white"/>
<path d="M24.5787 39.5512C21.0217 40.7492 16.5799 40.5973 12.0772 39.1342C5.4464 36.9798 3.80092 31.6886 5.6992 25.8463C7.6769 19.7596 12.0388 16.6906 18.6696 18.845C23.1814 20.311 26.8436 22.8726 29.052 25.784L36.1912 34.0787C36.9279 34.9347 36.3061 36.8441 35.207 37.1006L24.5787 39.5512Z" fill="white"/>
<path d="M36.0976 48.5376C36.1379 52.2908 34.6208 56.4682 31.8379 60.2984C27.7399 65.9389 22.1992 65.8688 17.2294 62.258C12.0517 58.4963 10.4808 53.3995 14.5789 47.759C17.3674 43.921 20.9353 41.2296 24.3866 40.029L34.4815 35.8024C35.5232 35.3663 37.147 36.5477 37.0513 37.6723L36.0976 48.5376Z" fill="white"/>
<path d="M47.8777 39.8241C51.4597 40.9457 54.9638 43.6794 57.7466 47.5097C61.8447 53.1502 60.0658 58.398 55.0961 62.0087C49.9184 65.7705 44.5856 65.6896 40.4876 60.0491C37.6991 56.2111 36.242 51.9861 36.1667 48.3327L35.2665 37.4258C35.1736 36.3003 36.799 35.121 37.8389 35.5595L47.8777 39.8241Z" fill="white"/>
<path d="M43.1698 25.8968C45.3433 22.8367 49.0261 20.3488 53.5288 18.8858C60.1596 16.7313 64.6009 20.0448 66.4992 25.8871C68.4769 31.9738 66.752 37.0206 60.1212 39.175C55.6094 40.641 51.1409 40.7212 47.643 39.6639L36.9918 37.1496C35.8926 36.8902 35.2734 34.9799 36.0118 34.1264L43.1698 25.8968Z" fill="white"/>
<g style="mix-blend-mode:multiply">
<path d="M29.8221 33.8987C28.6616 37.3107 30.4868 41.0174 33.8987 42.1779C37.3107 43.3384 41.0174 41.5132 42.1779 38.1013C43.3384 34.6893 41.5132 30.9826 38.1013 29.8221C34.6893 28.6616 30.9826 30.4867 29.8221 33.8987Z" fill="#E3E2D8"/>
<path fill-rule="evenodd" clip-rule="evenodd" d="M11.1308 35.2522L60.0674 35.9223L60.0562 36.7379L11.1196 36.0678L11.1308 35.2522Z" fill="#E3E2D8"/>
<path d="M60.4528 37.5591C59.7772 37.5498 59.2369 36.9946 59.2462 36.3189C59.2554 35.6432 59.8107 35.103 60.4863 35.1123C61.162 35.1215 61.7022 35.6767 61.693 36.3524C61.6837 37.0281 61.1285 37.5683 60.4528 37.5591Z" fill="#E3E2D8"/>
<path d="M11.5162 36.889C10.8406 36.8797 10.3003 36.3245 10.3096 35.6488C10.3188 34.9731 10.8741 34.4329 11.5497 34.4421C12.2254 34.4514 12.7657 35.0066 12.7564 35.6823C12.7472 36.358 12.1919 36.8982 11.5162 36.889Z" fill="#E3E2D8"/>
<path fill-rule="evenodd" clip-rule="evenodd" d="M16.3206 20.7765L55.5172 50.0829L55.0288 50.7362L15.8321 21.4298L16.3206 20.7765Z" fill="#E3E2D8"/>
<path d="M54.867 51.6337C54.3258 51.229 54.2151 50.4623 54.6197 49.9211C55.0244 49.3799 55.7911 49.2692 56.3323 49.6738C56.8735 50.0785 56.9842 50.8452 56.5795 51.3864C56.1749 51.9276 55.4082 52.0383 54.867 51.6337Z" fill="#E3E2D8"/>
<path d="M15.6703 22.3273C15.1291 21.9227 15.0184 21.1559 15.4231 20.6147C15.8277 20.0735 16.5945 19.9628 17.1356 20.3675C17.6768 20.7721 17.7875 21.5389 17.3829 22.0801C16.9783 22.6213 16.2115 22.732 15.6703 22.3273Z" fill="#E3E2D8"/>
<path fill-rule="evenodd" clip-rule="evenodd" d="M29.0277 12.116L43.5126 58.8646L42.7335 59.106L28.2486 12.3575L29.0277 12.116Z" fill="#E3E2D8"/>
<path d="M42.0751 59.737C41.8751 59.0915 42.2362 58.4061 42.8817 58.2061C43.5271 58.0062 44.2125 58.3673 44.4125 59.0127C44.6125 59.6582 44.2514 60.3436 43.6059 60.5436C42.9604 60.7436 42.2751 60.3824 42.0751 59.737Z" fill="#E3E2D8"/>
<path d="M27.5902 12.9884C27.3902 12.343 27.7513 11.6576 28.3967 11.4576C29.0422 11.2576 29.7276 11.6187 29.9276 12.2642C30.1276 12.9097 29.7665 13.595 29.121 13.795C28.4755 13.995 27.7901 13.6339 27.5902 12.9884Z" fill="#E3E2D8"/>
<path fill-rule="evenodd" clip-rule="evenodd" d="M44.3986 12.5785L28.639 58.9129L27.8668 58.6502L43.6264 12.3158L44.3986 12.5785Z" fill="#E3E2D8"/>
<path d="M26.9632 58.7737C27.1808 58.1339 27.8758 57.7917 28.5156 58.0093C29.1553 58.2269 29.4975 58.9219 29.28 59.5616C29.0624 60.2014 28.3673 60.5436 27.7276 60.326C27.0879 60.1084 26.7456 59.4134 26.9632 58.7737Z" fill="#E3E2D8"/>
<path d="M42.7228 12.4393C42.9404 11.7995 43.6354 11.4573 44.2751 11.6749C44.9149 11.8925 45.2571 12.5875 45.0395 13.2273C44.8219 13.867 44.1269 14.2092 43.4872 13.9916C42.8474 13.774 42.5052 13.079 42.7228 12.4393Z" fill="#E3E2D8"/>
<path fill-rule="evenodd" clip-rule="evenodd" d="M56.562 21.9874L16.5776 50.2095L16.1072 49.5431L56.0916 21.321L56.562 21.9874Z" fill="#E3E2D8"/>
<path d="M15.3036 49.1119C15.8557 48.7222 16.6191 48.8539 17.0088 49.4059C17.3985 49.958 17.2668 50.7214 16.7147 51.1111C16.1627 51.5008 15.3992 51.3691 15.0096 50.817C14.6199 50.265 14.7516 49.5016 15.3036 49.1119Z" fill="#E3E2D8"/>
<path d="M55.288 20.8898C55.8401 20.5002 56.6035 20.6318 56.9932 21.1839C57.3829 21.7359 57.2512 22.4994 56.6991 22.889C56.1471 23.2787 55.3836 23.1471 54.994 22.595C54.6043 22.0429 54.736 21.2795 55.288 20.8898Z" fill="#E3E2D8"/>
<path fill-rule="evenodd" clip-rule="evenodd" d="M60.8719 36.7489L11.9353 36.0788L11.9465 35.2632L60.8831 35.9333L60.8719 36.7489Z" fill="#E3E2D8"/>
<path d="M11.5497 34.4421C12.2254 34.4514 12.7657 35.0066 12.7564 35.6823C12.7472 36.358 12.1919 36.8982 11.5162 36.889C10.8406 36.8797 10.3003 36.3245 10.3096 35.6488C10.3188 34.9731 10.8741 34.4329 11.5497 34.4421Z" fill="#E3E2D8"/>
<path d="M60.4863 35.1123C61.162 35.1215 61.7022 35.6767 61.693 36.3524C61.6837 37.0281 61.1285 37.5683 60.4528 37.5591C59.7772 37.5498 59.2369 36.9946 59.2462 36.3189C59.2554 35.6432 59.8107 35.103 60.4863 35.1123Z" fill="#E3E2D8"/>
<path fill-rule="evenodd" clip-rule="evenodd" d="M55.6821 51.2245L16.4855 21.9182L16.9739 21.2649L56.1705 50.5713L55.6821 51.2245Z" fill="#E3E2D8"/>
<path d="M17.1356 20.3675C17.6768 20.7721 17.7875 21.5389 17.3829 22.0801C16.9783 22.6213 16.2115 22.732 15.6703 22.3273C15.1291 21.9227 15.0184 21.1559 15.4231 20.6147C15.8277 20.0735 16.5945 19.9628 17.1356 20.3675Z" fill="#E3E2D8"/>
<path d="M56.3323 49.6738C56.8735 50.0785 56.9842 50.8452 56.5795 51.3864C56.1749 51.9276 55.4082 52.0383 54.867 51.6337C54.3258 51.229 54.2151 50.4623 54.6197 49.9211C55.0244 49.3799 55.7911 49.2692 56.3323 49.6738Z" fill="#E3E2D8"/>
<path fill-rule="evenodd" clip-rule="evenodd" d="M42.9749 59.8852L28.49 13.1367L29.2691 12.8953L43.7541 59.6438L42.9749 59.8852Z" fill="#E3E2D8"/>
<path d="M29.9276 12.2642C30.1276 12.9097 29.7665 13.595 29.121 13.795C28.4755 13.995 27.7901 13.6339 27.5902 12.9884C27.3902 12.343 27.7513 11.6576 28.3967 11.4576C29.0422 11.2576 29.7276 11.6187 29.9276 12.2642Z" fill="#E3E2D8"/>
<path d="M44.4125 59.0127C44.6125 59.6582 44.2514 60.3436 43.6059 60.5436C42.9604 60.7436 42.2751 60.3824 42.0751 59.737C41.8751 59.0915 42.2362 58.4061 42.8817 58.2061C43.5271 58.0062 44.2125 58.3673 44.4125 59.0127Z" fill="#E3E2D8"/>
<path fill-rule="evenodd" clip-rule="evenodd" d="M27.6041 59.4226L43.3637 13.0882L44.1359 13.3509L28.3763 59.6853L27.6041 59.4226Z" fill="#E3E2D8"/>
<path d="M45.0395 13.2273C44.8219 13.867 44.1269 14.2092 43.4872 13.9916C42.8474 13.774 42.5052 13.079 42.7228 12.4393C42.9404 11.7995 43.6354 11.4573 44.2751 11.6749C44.9149 11.8925 45.2571 12.5875 45.0395 13.2273Z" fill="#E3E2D8"/>
<path d="M29.28 59.5616C29.0624 60.2014 28.3673 60.5436 27.7276 60.326C27.0879 60.1084 26.7456 59.4134 26.9632 58.7737C27.1808 58.1339 27.8758 57.7917 28.5156 58.0093C29.1553 58.2269 29.4975 58.9219 29.28 59.5616Z" fill="#E3E2D8"/>
<path fill-rule="evenodd" clip-rule="evenodd" d="M15.4407 50.0136L55.4251 21.7916L55.8955 22.458L15.911 50.68L15.4407 50.0136Z" fill="#E3E2D8"/>
<path d="M56.6991 22.889C56.1471 23.2787 55.3836 23.1471 54.994 22.595C54.6043 22.0429 54.736 21.2795 55.288 20.8898C55.8401 20.5002 56.6035 20.6318 56.9932 21.1839C57.3829 21.7359 57.2512 22.4994 56.6991 22.889Z" fill="#E3E2D8"/>
<path d="M16.7147 51.1111C16.1627 51.5008 15.3992 51.3691 15.0096 50.817C14.6199 50.265 14.7516 49.5016 15.3036 49.1119C15.8557 48.7222 16.6191 48.8539 17.0088 49.4059C17.3985 49.958 17.2668 50.7214 16.7147 51.1111Z" fill="#E3E2D8"/>
<ellipse cx="6.60786" cy="6.58207" rx="6.60786" ry="6.58207" transform="matrix(-0.946736 -0.32201 -0.32201 0.946736 44.3705 31.9107)" fill="#FDE35E"/>
<circle cx="3.26274" cy="3.26274" r="3.26274" transform="matrix(-0.946736 -0.32201 -0.32201 0.946736 40.1396 33.9617)" fill="#E9C50C"/>
</g>
</svg>
